<!--?xml version="1.0" standalone="no"?-->
              <svg id="sw-js-blob-svg" viewBox="0 0 100 100" xmlns="http://www.w3.org/2000/svg" version="1.1">
                    <defs> 
                        <linearGradient id="sw-gradient" x1="0" x2="1" y1="1" y2="0">
                            <stop id="stop1" stop-color="rgba(179.937, 74.396, 24.445, 1)" offset="0%"></stop>
                            <stop id="stop2" stop-color="rgba(255, 158.795, 0, 1)" offset="100%"></stop>
                        </linearGradient>
                    </defs>
                <path fill="url(#sw-gradient)" d="M25.7,-34.9C32,-30.8,34.9,-21.6,37.4,-12.5C39.9,-3.4,42,5.5,39.8,13.1C37.6,20.8,31.1,27.3,23.7,31.5C16.3,35.8,8.2,37.8,-0.4,38.4C-9,39,-18,38.1,-23.6,33.3C-29.2,28.5,-31.4,19.7,-34.1,11.2C-36.7,2.6,-39.9,-5.7,-37.6,-12C-35.2,-18.4,-27.5,-22.8,-20.3,-26.5C-13.2,-30.3,-6.6,-33.4,1.6,-35.6C9.7,-37.8,19.4,-38.9,25.7,-34.9Z" width="100%" height="100%" transform="translate(50 50)" stroke-width="0" style="transition: all 0.3s ease 0s;" stroke="url(#sw-gradient)"></path>
              </svg>