<!--?xml version="1.0" standalone="no"?-->
              <svg id="sw-js-blob-svg" viewBox="0 0 100 100" xmlns="http://www.w3.org/2000/svg" version="1.1">
                    <defs> 
                        <linearGradient id="sw-gradient" x1="0" x2="1" y1="1" y2="0">
                            <stop id="stop1" stop-color="rgba(248, 117, 55, 1)" offset="0%"></stop>
                            <stop id="stop2" stop-color="rgba(251, 168, 31, 1)" offset="100%"></stop>
                        </linearGradient>
                    </defs>
                <path fill="url(#sw-gradient)" d="M23.8,-31.4C31,-27.5,37.2,-20.8,39.9,-12.9C42.7,-4.9,42,4.2,37.8,10.8C33.6,17.3,25.9,21.1,19,26C12.1,30.8,6.1,36.5,-1.8,39C-9.6,41.4,-19.1,40.4,-25.1,35.3C-31.1,30.2,-33.6,21,-33.7,12.8C-33.7,4.7,-31.4,-2.4,-29.7,-10.3C-28.1,-18.3,-27.1,-27.1,-22.2,-31.7C-17.4,-36.3,-8.7,-36.7,-0.2,-36.4C8.3,-36.1,16.6,-35.2,23.8,-31.4Z" width="100%" height="100%" transform="translate(50 50)" stroke-width="0" style="transition: all 0.3s ease 0s;"></path>
              </svg>